<?xml version="1.0" standalone="no"?><svg xmlns="http://www.w3.org/2000/svg" viewBox="0 0 1440 320"><path fill="#6acfe8" fill-opacity="0.7" d="M0,256L34.3,245.3C68.6,235,137,213,206,208C274.3,203,343,213,411,229.3C480,245,549,267,617,261.3C685.7,256,754,224,823,224C891.4,224,960,256,1029,229.3C1097.1,203,1166,117,1234,101.3C1302.9,85,1371,139,1406,165.3L1440,192L1440,0L1405.7,0C1371.4,0,1303,0,1234,0C1165.7,0,1097,0,1029,0C960,0,891,0,823,0C754.3,0,686,0,617,0C548.6,0,480,0,411,0C342.9,0,274,0,206,0C137.1,0,69,0,34,0L0,0Z"></path></svg>